<?xml version="1.0" standalone="no"?><!DOCTYPE svg PUBLIC "-//W3C//DTD SVG 1.1//EN" "http://www.w3.org/Graphics/SVG/1.1/DTD/svg11.dtd"><svg t="1582291773566" class="icon" viewBox="0 0 1024 1024" version="1.1" xmlns="http://www.w3.org/2000/svg" p-id="1307" xmlns:xlink="http://www.w3.org/1999/xlink" width="200" height="200"><defs><style type="text/css"></style></defs><path d="M924.9 635.2H400.5c-2.8 0-5.2-1.8-6.2-4.4l-23.5-67.7h455.3c20.8 0 38.7-14.8 42.6-35.3l53.6-281.6c2.6-13.8-1.5-28-11.4-38.2-8.3-8.7-20-13.3-32-13.3H370.2c-12.2 0-22.1 10.1-21.7 22.5 0.4 11.8 10.4 20.9 22.2 20.9h501.1c4.1 0 7.2 3.7 6.4 7.7l-51.1 268.5c-0.6 3.1-3.3 5.3-6.4 5.3H355.8L226.3 145.9c-6.1-17.5-22.5-29.2-41-29.2H46.7c-12.2 0-22.1 10.1-21.7 22.5 0.4 11.8 10.4 20.9 22.2 20.9h133.4c2.8 0 5.2 1.8 6.2 4.4l168 484.9c6 17.5 22.5 29.2 41 29.2h528.5c11.8 0 21.8-9.2 22.2-20.9 0.5-12.4-9.4-22.5-21.6-22.5zM485.3 722.3c-35.9 0-65.1 29.2-65.1 65.1 0 35.9 29.2 65.1 65.1 65.1s65.1-29.2 65.1-65.1c0-35.9-29.3-65.1-65.1-65.1z m0 86.8c-12 0-21.7-9.7-21.7-21.7s9.7-21.7 21.7-21.7 21.7 9.7 21.7 21.7-9.8 21.7-21.7 21.7zM808.3 722.3c-35.9 0-65.1 29.2-65.1 65.1 0 35.9 29.2 65.1 65.1 65.1 35.9 0 65.1-29.2 65.1-65.1 0-35.9-29.2-65.1-65.1-65.1z m0 86.8c-12 0-21.7-9.7-21.7-21.7s9.7-21.7 21.7-21.7 21.7 9.7 21.7 21.7-9.7 21.7-21.7 21.7z" fill="#333333" p-id="1308"></path></svg>